<?xml version="1.0" encoding="utf-8"?>
<!-- Generator: Adobe Illustrator 19.2.1, SVG Export Plug-In . SVG Version: 6.00 Build 0)  -->
<svg version="1.1" id="Layer_1" xmlns="http://www.w3.org/2000/svg" xmlns:xlink="http://www.w3.org/1999/xlink" x="0px" y="0px"
	 viewBox="0 0 250 250" style="enable-background:new 0 0 250 250;" xml:space="preserve">
<style type="text/css">
	.st0{fill:#FFFFFF;}
	.st1{fill:#1D3D71;}
	.st2{fill:#1F3364;}
	.st3{fill:#1D3767;}
	.st4{fill:#D72027;}
	.st5{fill:#057DC2;}
	.st6{fill:#CFD8E1;}
</style>
<g>
	<rect x="14" y="109.1" class="st0" width="221.9" height="58.7"/>
	<path class="st1" d="M14,104.5h12.7c0,0-1.6-4.4-2-16.6c0,0,30.4-16.7,68.6-21.3h62.6c0,0,33.9,2.8,69.3,21.6c0,0,0.5,7.6-1.9,16.3
		H236v4.5H14V104.5z"/>
	<g>
		<path class="st0" d="M128,21.5c-1.2-1.4-2.2-2.9-3-4.5c-0.8,1.6-1.8,3.1-3,4.5c-7.5,8.7-17.6,11.6-29,1.4v59.4
			c0.1,6.7,5.2,9,10,10.8l3.7,1c5.6,0.7,10.9,2.1,18.3,9.8c7.3-7.7,12.7-9.1,18.3-9.8l3.7-1c4.7-1.8,9.9-4.1,10-10.8V22.9
			C145.6,33.1,135.5,30.2,128,21.5z"/>
		<path class="st2" d="M128,25.3c-1.1-1.3-2.1-2.7-2.8-4.2c-0.7,1.5-1.7,2.9-2.8,4.2c-6.9,7.9-18.5,8.9-26.5,2.6v52.4
			c0.1,6.1,4.8,8.2,9.1,9.8l3.4,0.9c5.1,0.7,10,1.9,16.8,8.9c0,0,0,0,0,0c0,0,0,0,0,0c6.7-7,11.7-8.2,16.8-8.9l3.4-0.9
			c4.3-1.6,9-3.7,9.1-9.8V27.9C146.5,34.2,134.9,33.2,128,25.3z"/>
		<g>
			<path class="st0" d="M132.4,31.3c0,0-9-1.3-13.3,5.7c-4.3,6.9-1.3,13.1-1.3,13.1s9.1,1.5,13.9-5.9
				C135.7,38,132.4,31.3,132.4,31.3z"/>
			<g>
				<path class="st3" d="M122.7,36.6l4,2.1c0.2-0.2,0.3-0.3,0.5-0.5l-4-2.1C123,36.2,122.9,36.4,122.7,36.6z"/>
				<path class="st3" d="M121.4,38.3l3.9,2c0.2-0.2,0.3-0.4,0.5-0.6l-4-2C121.6,37.9,121.5,38.1,121.4,38.3z"/>
				<path class="st3" d="M120.3,40.1l3.8,1.9c0.1-0.2,0.2-0.4,0.3-0.5l-3.8-2C120.5,39.7,120.4,39.9,120.3,40.1z"/>
				<path class="st3" d="M126.7,33.1c-0.2,0.1-0.4,0.3-0.6,0.4l3.9,2c0.2-0.2,0.4-0.3,0.5-0.4L126.7,33.1z"/>
				<path class="st3" d="M124.3,35l4,2.1c0.2-0.2,0.4-0.3,0.6-0.5l-4-2C124.7,34.7,124.5,34.8,124.3,35z"/>
			</g>
			<g>
				<path class="st3" d="M128.8,34.5c2.3-2,4.2-3.3,4.2-3.3l-0.3-0.2c0,0-2.1,0.7-4.8,3L128.8,34.5z"/>
				<path class="st3" d="M122,40.6c-2.8,4.5-4.5,9.6-4.5,9.6l0.4,0.2c0,0,2.2-5.3,4.9-9.5L122,40.6z"/>
			</g>
		</g>
		<g>
			<g>
				<polygon class="st0" points="148.1,34.3 149.1,37.1 152.2,37.1 149.7,39.1 150.7,42.1 148.1,40.1 145.6,41.9 146.6,39 
					144.2,37.1 147.1,37.1 				"/>
				<polygon class="st0" points="148.1,43.4 149.1,46.2 152.2,46.2 149.7,48.1 150.7,51.1 148.1,49.2 145.6,51 146.6,48.1 
					144.2,46.2 147.1,46.2 				"/>
				<polygon class="st0" points="138.4,43.4 139.3,46.2 142.4,46.2 140,48.1 140.9,51.1 138.4,49.2 135.8,51 136.8,48.1 134.4,46.2 
					137.4,46.2 				"/>
				<polygon class="st0" points="138.3,34.3 139.3,37.1 142.3,37.1 139.9,39.1 140.8,42.1 138.3,40.1 135.8,41.9 136.7,39 
					134.4,37.1 137.3,37.1 				"/>
			</g>
			<g>
				<polygon class="st0" points="112.1,34.3 113,37.1 116.1,37.1 113.6,39.1 114.6,42.1 112.1,40.1 109.5,41.9 110.5,39 108.1,37.1 
					111.1,37.1 				"/>
				<polygon class="st0" points="112.1,43.4 113,46.2 116.1,46.2 113.6,48.1 114.6,51.1 112.1,49.2 109.5,51 110.5,48.1 108.1,46.2 
					111.1,46.2 				"/>
				<polygon class="st0" points="102.3,43.4 103.3,46.2 106.4,46.2 103.9,48.1 104.8,51.1 102.3,49.2 99.8,51 100.7,48.1 98.4,46.2 
					101.3,46.2 				"/>
				<polygon class="st0" points="102.2,34.3 103.2,37.1 106.3,37.1 103.8,39.1 104.8,42.1 102.2,40.1 99.7,41.9 100.7,39 98.3,37.1 
					101.3,37.1 				"/>
			</g>
		</g>
		<path class="st0" d="M98.8,53.2v25.2c0.1,5.6,4.3,7.5,8.2,9l3.1,0.9c4.6,0.6,9,1.7,15.1,8.2c0,0,0,0,0,0c0,0,0,0,0,0
			c6.1-6.4,10.5-7.6,15.1-8.2l3.1-0.9c3.9-1.5,8.1-3.4,8.2-9V53.2H98.8z"/>
		<path class="st4" d="M126.8,56.5h-4.7h-1.7v4h1.7v7.3v4v6v2v3.5v0.2c-1-0.1-1.9-0.2-1.9-0.2V87c0,0,2.2,0.2,3.8,0.7
			c1.3,0.4,4.4,1.8,4.4,1.8v-4c0,0-0.6-0.4-1.6-0.8v-1.3v-5.5v-6h2.4l0.6,1.6h2.6v-1.6v-2v-0.1v-1.9v-1.8h-2.6l-0.6,1.8h-2.4v-7.3
			h3.1l1,2.3h3.2v-2.3v-1.4v-2.6H126.8z"/>
		<path class="st4" d="M117.5,56.5h-4.7h-1.4v4h1.4v9.7l-4.9-13.9v0h-4.7h-1.3v4h1.3v11v6.5c-1.1-0.1-2-0.1-2-0.1l0.3,4.1
			c0,0,2.2,0.1,3.8,0.5c1.3,0.3,4.5,1.7,4.5,1.7l-0.4-4.5c0,0-0.6-0.4-1.6-0.8v-7.5v-0.8l5.1,14.4l4.5,1.4v0v-2.7V60.5h1.3v-4H117.5
			z"/>
		<path class="st4" d="M145.3,73v5.7c-1.2,0.3-2.6,0.6-3.7,0.9v-0.4v-4.4V60.5l1.4-0.6v-3.4h-1.4h-2.3h-0.1h-2.3h-1.4v3.4l1.4,0.6
			v14.3v4.4v2.2c-0.8,0.4-1.5,0.8-2,1.2v4.6c1.5-0.9,5.2-2.9,6.9-3.7c3.4-1.4,7.1-1.7,7.1-1.7v-0.3v-3.5V73H145.3z"/>
	</g>
	<path class="st1" d="M14,171.4v-3.6H236v3.6c0,0-43.6,4.3-46.2,4.8c0,0-17,28.9-64.8,56.8c0,0-30.5-12.5-65.3-56.8L14,171.4z"/>
	<rect x="14" y="113.8" class="st5" width="221.9" height="49.3"/>
	<g>
		<path class="st6" d="M30.5,91.5l4.4,2.7c0,0,20.2-10.6,50.5-16.6v-4.5C85.4,73.2,57.1,78.2,30.5,91.5z"/>
		<path class="st0" d="M30.5,91.5c0,0,0.2,6.4,1.9,12.9h4.4c0,0-0.7-3.1-1.9-10.2L30.5,91.5z"/>
	</g>
	<g>
		<path class="st6" d="M219.5,91.5l-4.4,2.7c0,0-20.2-10.6-50.5-16.6v-4.5C164.6,73.2,192.9,78.2,219.5,91.5z"/>
		<path class="st0" d="M219.5,91.5c0,0-0.2,6.4-1.9,12.9h-4.4c0,0,0.7-3.1,1.9-10.2L219.5,91.5z"/>
	</g>
	<path class="st6" d="M66.5,176.6l6.1,0.3c0,0,29.2,33.9,52.4,44.6v4.7C125,226.3,102.7,218.7,66.5,176.6z"/>
	<path class="st0" d="M183.5,176.6l-6.1,0.3c0,0-29.2,33.9-52.4,44.6v4.7C125,226.3,147.3,218.7,183.5,176.6z"/>
	<g>
		<path class="st0" d="M37.2,123.5h27.7v9.4c-2.2,0-3.8,0-4.9-0.1c-0.2-0.8-0.5-2.1-1-3.7h-4.2V148c0.4,0.1,0.9,0.2,1.6,0.4
			c0.7,0.2,1.3,0.3,1.6,0.4c0,2,0,3.5,0,4.5h-14c0-0.6,0-1.1,0-1.7c0-1.1,0-2,0.1-2.8c1.3-0.3,2.4-0.6,3.4-0.9v-18.6
			c-1-0.1-2.4-0.2-4.4-0.2c-0.1,0.4-0.3,1.1-0.5,1.9c-0.2,0.8-0.4,1.5-0.5,1.9h-4.9V123.5z"/>
		<path class="st0" d="M71.2,123.5h17.7c3.3,0.3,5.6,1.1,7,2.5c1.4,1.4,2.1,3.3,2.1,5.7c0,0.3,0,0.6,0,0.9c0,0.3,0,0.5,0,0.8
			c0,2.5-0.7,4.4-2.1,5.8c-0.5,0.5-1.6,1.1-3.5,1.7c0.3,0.6,1,1.7,1.8,3.2c0.8,1.3,1.4,2.4,1.8,3.2c0.2,0.5,0.8,0.9,1.5,1.1
			c0.2,0.1,0.5,0.1,1,0.2c0.4,0.1,0.7,0.2,1,0.2v4.6c-1.5,0-3.7,0-6.6,0s-5.1,0-6.6,0v-4.6c0.3-0.1,1-0.3,2.1-0.6
			c-0.5-1.3-1.6-3.5-3.1-6.7c-1.8,0-3.1,0-4,0v6.5c1.5,0.4,2.6,0.7,3.4,0.8c0,1,0,2.5,0,4.6c-3,0-7.5,0-13.5,0v-4.6
			c0.6-0.2,1.6-0.5,2.9-0.8c0-2.1,0-5.3,0-9.5c0-4.2,0-7.4,0-9.5c-0.7-0.2-1.6-0.5-2.9-0.9V123.5z M81.2,129.1c0,0.7,0,1.8,0,3.3
			c0,1.5,0,2.5,0,3.3c0.3,0,0.8,0,1.4,0c0.6,0,1.4,0,2.2,0h1.1c1,0,1.9,0,2.6,0h0.1c1.2,0,1.9-0.6,2.3-1.9c0.1-0.5,0.2-0.9,0.2-1.4
			c0-0.7-0.1-1.4-0.4-2c-0.3-0.5-0.8-0.8-1.6-1c-0.4-0.1-1-0.2-1.9-0.2C84,129.1,82,129.1,81.2,129.1z"/>
		<path class="st0" d="M105.9,123.5H120c0,2,0,3.5,0,4.5c-0.6,0.1-1.8,0.4-3.4,0.8c0,2.1,0,5.3,0,9.5c0,4.2,0,7.4,0,9.5
			c0.8,0.2,1.9,0.5,3.4,0.9c0,1,0,2.5,0,4.5h-14.2c0-0.2,0-0.9,0-2.2c0-0.9,0-1.6,0.1-2.2c0.4-0.2,1-0.3,1.7-0.5
			c0.9-0.2,1.5-0.4,1.7-0.4v-19.1c-1.7-0.4-2.9-0.7-3.5-0.8V123.5z"/>
		<path class="st0" d="M126.3,123.5h14.2v4.5c-0.7,0.2-1.9,0.5-3.4,1c3,10.5,4.6,16.2,4.9,17.1c1.4-4.7,3-10.4,4.8-17.1
			c-1.4-0.4-2.5-0.7-3.3-0.9v-4.5h12.6v4.6c-0.3,0.1-0.8,0.2-1.5,0.4c-0.7,0.2-1.2,0.3-1.5,0.4c-0.9,3.1-2.2,7.1-3.8,12.2
			c-1.9,6.2-3.2,10.2-3.8,12.2c-1,0-2.4,0-4.4,0c-1.9,0-3.4,0-4.3,0c-0.2-0.7-1.5-4.7-3.9-12.2c-1.6-4.9-2.8-9-3.8-12.2
			c-0.3-0.1-0.8-0.2-1.5-0.4c-0.7-0.2-1.1-0.3-1.5-0.4V123.5z"/>
		<path class="st0" d="M162.5,123.5h14.2c0,2,0,3.5,0,4.5c-0.6,0.1-1.8,0.4-3.4,0.8c0,2.1,0,5.3,0,9.5c0,4.2,0,7.4,0,9.5
			c0.8,0.2,1.9,0.5,3.4,0.9c0,1,0,2.5,0,4.5h-14.2c0-0.2,0-0.9,0-2.2c0-0.9,0-1.6,0.1-2.2c0.4-0.2,1-0.3,1.7-0.5
			c0.9-0.2,1.5-0.4,1.7-0.4v-19.1c-1.7-0.4-2.9-0.7-3.5-0.8V123.5z"/>
		<path class="st0" d="M198.7,123.5c1.4,0,2.6,0,3.5,0.1c2.7,8.4,5.3,16.5,7.7,24.2c1,0.3,2,0.6,2.9,0.9v4.6h-14.1v-4.6
			c1.1-0.2,2.2-0.5,3.2-0.9c-0.1-0.3-0.2-0.8-0.4-1.5c-0.2-0.7-0.3-1.2-0.4-1.5h-8.1l-1,3c0.4,0.1,1,0.2,1.7,0.5
			c0.8,0.2,1.4,0.4,1.7,0.5v4.5H183c0-2,0-3.6,0-4.6c0.3-0.1,0.8-0.2,1.4-0.4c0.7-0.2,1.1-0.3,1.5-0.4c0.7-2.2,2-6.3,3.8-12.2
			c1.6-5.1,2.9-9.2,3.8-12.2H198.7z M196.6,130.8c-0.2,1-0.7,2.6-1.2,4.7c-0.6,2.1-1,3.7-1.2,4.7c0.6,0,1.1,0,1.7,0
			c1.3,0,2.5,0,3.4-0.1c-0.3-0.8-0.7-2.4-1.3-4.7C197.5,133.5,197.1,131.9,196.6,130.8z"/>
	</g>
</g>
</svg>
