<?xml version="1.0" encoding="utf-8"?>
<!-- Generator: Adobe Illustrator 19.2.1, SVG Export Plug-In . SVG Version: 6.00 Build 0)  -->
<svg version="1.1" id="Layer_1" xmlns="http://www.w3.org/2000/svg" xmlns:xlink="http://www.w3.org/1999/xlink" x="0px" y="0px"
	 viewBox="0 0 250 250" style="enable-background:new 0 0 250 250;" xml:space="preserve">
<style type="text/css">
	.st0{fill:#1F3364;}
	.st1{fill:#FFFFFF;}
	.st2{fill:#E6E5E7;}
	.st3{fill:#132748;}
	.st4{fill:#D72027;}
</style>
<g>
	<path class="st0" d="M140.9,32.8c-2-3.2-3.6-6.6-4.7-10.1c-2.1,3-4.6,5.8-7.5,8.2c-17.7,14.9-43.5,13.3-58.9-3.2L52.1,142.4
		c-1.8,13.4,7.8,19.5,16.7,24.4l7.1,3.2c10.9,3.1,21.3,7.5,33.7,25.1c0,0,0.1-0.1,0.1-0.1c0,0,0,0.1,0.1,0.1
		c17.1-13.1,28.3-14.2,39.7-13.9l7.7-0.9c10-2.1,21-5,23.3-18.3l17.5-114.7C178.4,58.5,153.3,52.3,140.9,32.8z"/>
	<path class="st1" d="M147.1,49.7c0,0-17.5-3.8-26.9,9.3C111,71.8,116,84.5,116,84.5s17.5,4.2,27.9-9.6
		C152.6,63.4,147.1,49.7,147.1,49.7z"/>
	<path class="st0" d="M127.5,58.7l7.6,4.6c0.3-0.3,0.6-0.6,1-0.9l-7.6-4.6C128.1,58.1,127.8,58.4,127.5,58.7z"/>
	<path class="st2" d="M124.6,61.9l7.4,4.5c0.3-0.4,0.7-0.7,1-1l-7.5-4.5C125.2,61.2,124.9,61.5,124.6,61.9z"/>
	<path class="st0" d="M131.2,65.3l1.1,8.6c0.5,0,1,0.1,1.4,0.1l-1.1-8.7C132.1,65.3,131.6,65.3,131.2,65.3z"/>
	<path class="st0" d="M122.2,65.3l7.2,4.3c0.2-0.4,0.5-0.7,0.7-1l-7.2-4.4C122.7,64.6,122.5,64.9,122.2,65.3z"/>
	<path class="st0" d="M135.8,52.5c-0.4,0.2-0.8,0.5-1.2,0.7l7.4,4.4c0.4-0.3,0.7-0.5,1.1-0.8L135.8,52.5z"/>
	<path class="st0" d="M130.7,55.9l7.6,4.6c0.4-0.3,0.8-0.6,1.2-0.9l-7.6-4.6C131.5,55.3,131.1,55.6,130.7,55.9z"/>
	<g>
		<path class="st0" d="M139.6,55.5c4.8-3.6,8.6-5.9,8.6-5.9l-0.6-0.5c0,0-4.2,1.2-9.9,5.3L139.6,55.5z"/>
		<path class="st0" d="M125.6,66.5c-6.1,8.4-10.2,18.2-10.2,18.2l0.8,0.5c0,0,4.9-10,11-17.8L125.6,66.5z"/>
	</g>
	<g>
		<g>
			<polygon class="st1" points="181.8,59.3 183,65.8 189.8,66.8 183.7,70.2 184.8,77.1 179.9,72 173.7,75.2 176.8,69.1 172.3,64.1 
				178.8,65.1 			"/>
			<polygon class="st1" points="178.8,79.2 180,85.6 186.7,86.7 180.7,90.1 181.7,97 176.8,91.9 170.7,95 173.8,89 169.2,84 
				175.7,85 			"/>
			<polygon class="st1" points="157.4,76 158.7,82.4 165.4,83.4 159.4,86.9 160.4,93.7 155.5,88.6 149.4,91.8 152.5,85.8 
				147.9,80.7 154.4,81.7 			"/>
			<polygon class="st3" points="160.3,56.1 161.5,62.5 168.3,63.5 162.2,67 163.3,73.8 158.4,68.7 152.2,71.9 155.3,65.9 
				150.8,60.8 157.3,61.8 			"/>
		</g>
		<g>
			<polygon class="st1" points="102.9,47.3 104.1,53.7 110.8,54.7 104.8,58.2 105.8,65 100.9,60 94.8,63.1 97.9,57.1 93.3,52 
				99.8,53 			"/>
			<polygon class="st3" points="99.8,67.1 101,73.6 107.8,74.6 101.7,78 102.8,84.9 97.9,79.8 91.7,83 94.8,76.9 90.3,71.9 
				96.8,72.9 			"/>
			<polygon class="st1" points="78.5,63.9 79.7,70.3 86.4,71.3 80.4,74.8 81.4,81.6 76.5,76.6 70.4,79.7 73.5,73.7 68.9,68.6 
				75.4,69.6 			"/>
			<polygon class="st3" points="81.3,44 82.5,50.4 89.3,51.4 83.3,54.9 84.3,61.7 79.4,56.7 73.3,59.8 76.4,53.8 71.8,48.7 
				78.3,49.7 			"/>
		</g>
	</g>
	<path class="st1" d="M67.6,84.1l-8.4,55.1c-1.7,12.3,7,17.9,15,22.4l6.4,2.9c9.8,2.8,19.2,6.8,30.3,23c0,0,0,0,0.1-0.1
		c0,0,0,0.1,0,0.1c15.4-12.1,25.5-13.1,35.8-12.8l7-0.9c9-1.9,18.9-4.7,21-16.9l8.4-55.1L67.6,84.1z"/>
	<path class="st4" d="M127.7,100.7l-10.2-1.6l-3.7-0.6l-1.3,8.7l3.7,0.6l-2.5,16.1l-1.3,8.7l-2,13.2l-0.7,4.4l-1.2,7.7l-0.1,0.4
		c-2.2-0.6-4.1-1-4.1-1l-1.2,7.9c0,0,4.8,1.3,8,2.8c2.6,1.3,9,5.5,9,5.5l1.3-8.7c0,0-1.2-1-3.2-2.3l0.5-3l1.8-12.1l2-13.2l5.3,0.8
		l0.7,3.8l5.7,0.9l0.6-3.6l0.7-4.4l0-0.3l0.6-4.1l0.6-3.9l-5.7-0.9l-2,3.6l-5.3-0.8l2.5-16.1l6.7,1l1.4,5.5l6.9,1.1l0.8-5.1l0.5-3.1
		l0.9-5.6L127.7,100.7z"/>
	<path class="st4" d="M107.3,97.6L97,96l-3-0.5l-1.3,8.7l3,0.5l-3.3,21.3l-6-32.2l0,0l-10.2-1.6l-2.9-0.4l-1.3,8.7l2.9,0.4
		l-3.7,24.1L69,139.5c-2.3-0.5-4.4-0.8-4.4-0.8l-0.6,9c0,0,4.9,0.9,8.2,2.4c2.7,1.2,9.3,5.3,9.3,5.3l0.7-9.9c0,0-1.3-1-3.3-2.3
		l2.5-16.3l0.3-1.8l6.2,33.3l9.4,4.5l0-0.1l0.9-5.8l7.7-50.6l2.8,0.4l1.3-8.7L107.3,97.6z"/>
	<path class="st2" d="M162.6,143.1l-1.9,12.4c-2.8,0.2-5.8,0.4-8.4,0.8l0.1-0.8l1.5-9.7l4.8-31.2l3.2-0.9l1.1-7.4l-3-0.5l-5-0.8
		l-0.3,0l-5-0.8l-3-0.5l-1.1,7.4l2.8,1.8l-4.8,31.2l-1.5,9.7l-0.8,4.9c-1.9,0.6-3.5,1.3-4.8,1.9l-1.5,10c3.5-1.4,12.3-4.7,16.4-5.7
		c8-1.9,16.2-1.3,16.2-1.3l0.1-0.8l1.2-7.8l1.6-10.7L162.6,143.1z"/>
	<path class="st4" d="M138.5,195.4l-4.8-11.6c2.3-1.6,4.8-3.4,6.8-5l0.3,0.8l3.7,9.1l12,29.2l-2.3,2.4l2.8,6.9l2.8-1.1l4.7-1.9
		l0.2-0.1l4.7-1.9l2.8-1.1l-2.8-6.9l-3.3-0.1l-12-29.2l-3.7-9.1l-1.9-4.6c1.3-1.5,2.3-2.9,3.2-4.1l-3.8-9.3
		c-2.3,3-8.1,10.3-11.1,13.3c-5.9,5.7-13.2,9.5-13.2,9.5l0.3,0.7l3,7.3l4.1,10L138.5,195.4z"/>
</g>
</svg>
